<mxfile host="65bd71144e">
    <diagram id="YvI_cnzAxLBcxLEcqwdZ" name="Page-1">
        <mxGraphModel dx="1009" dy="1069" grid="1" gridSize="10" guides="1" tooltips="1" connect="1" arrows="1" fold="1" page="1" pageScale="1" pageWidth="850" pageHeight="1100" math="0" shadow="0">
            <root>
                <mxCell id="0"/>
                <mxCell id="1" parent="0"/>
                <mxCell id="6" style="edgeStyle=none;html=1;entryX=0.5;entryY=0;entryDx=0;entryDy=0;" edge="1" parent="1" source="2" target="4">
                    <mxGeometry relative="1" as="geometry"/>
                </mxCell>
                <mxCell id="2" value="" style="shape=image;verticalLabelPosition=bottom;labelBackgroundColor=default;verticalAlign=top;aspect=fixed;imageAspect=0;image=data:image/png,iVBORw0KGgoAAAANSUhEUgAAAVgAAAAcCAYAAAAk0qeOAAAMP2lDQ1BJQ0MgUHJvZmlsZQAASImVVwdYU8kWnluSkEASIHQpoTdBpAaQEkILIL0IohKSAKHEGAgq9rKo4NrFAjZ0VUSx0+yInUWx98WCirIuFuzKmxTQdV/53nzf3PnvP2f+c+bcmXvvAEA/zpNI8lFNAArERdL4sCDmqNQ0JukpIAI60AI0oM/jF0rYsbFRAJaB9u/l3XWAyNsrTnKtf/b/16IlEBbyAUBiIc4UFPILID4AAF7Fl0iLACDKecuJRRI5hhXoSGGAEM+X42wlrpLjTCXeo7BJjOdA3AqAmgaPJ80GgHYJ8sxifjbUoPVC7CIWiMQA0JkQ+xcUjBdAnAGxHbSRQCzXZ2X+oJP9N83MQU0eL3sQK+eiKGrBokJJPm/y/5mO/10K8mUDPmxg1ciRhsfL5wzzdjNvfKQca0DcI86MjoFYG+IPIoHCHmKUkiMLT1Lao8b8Qg7MGdCD2EXAC46E2BjiUHF+dJSKz8wShXIhhisEnSQq4iZCbADxfGFhSILKZqN0fLzKF1qfJeWwVfxZnlThV+7rviwvia3Sf50j5Kr0MVpJTmIKxBSIrYpFydEQ0yB2LsxLiFTZjCjJ4UQP2Ehl8fL4rSCOF4rDgpT6WHGWNDReZV9WUDgwX2xjjogbrcL7inISw5X5wVr5PEX8cC7YJaGYnTSgIywcFTUwF4EwOEQ5d+yZUJyUoNL5ICkKileOxSmS/FiVPW4hzA+T8xYQuxcWJ6jG4slFcEEq9fEsSVFsojJOvCSXFxGrjAdfAqIABwQDJpDBmgnGg1wgau9p6IF3yp5QwANSkA2EwEnFDIxIUfSI4TUBlIA/IRKCwsFxQYpeISiG/NdBVnl1AlmK3mLFiDzwBOICEAny4b1MMUo86C0ZPIaM6B/eebDyYbz5sMr7/z0/wH5n2JCJUjGyAY9M+oAlMYQYTAwnhhLtcSPcH/fFo+A1EFZXnIV7D8zjuz3hCaGD8JBwjdBJuDVONFv6U5QjQSfUD1XlIvPHXOA2UNMDD8L9oDpUxvVwI+CEu0M/bDwAevaALEcVtzwrzJ+0/zaDH56Gyo7sQkbJ+uRAst3PI2kONI9BFXmuf8yPMtbMwXxzBnt+9s/5IfsC2Eb+bInNx/ZjZ7AT2DnsMNYAmNgxrBFrw47I8eDqeqxYXQPe4hXx5EEd0T/8DTxZeSYLXWpdul2+KPuKhJPk72jAGS+ZLBVl5xQx2fCLIGRyxXznoUxXF1c3AOTfF+Xr602c4ruB6LV95+b8AYDfsf7+/kPfuYhjAOz1gtu/6Ttnx4KfDnUAzjbxZdJiJYfLLwT4lqDDnWYITIElsIPzcQWewBcEghAQAWJAIkgFY2H0OXCdS8FEMBXMAqWgHCwBK8FasAFsBtvBLrAPNIDD4AQ4DS6AS+AauANXTxd4AXrBO/AZQRASQkUYiCFihlgjjogrwkL8kRAkColHUpEMJBsRIzJkKjIHKUeWIWuRTUgNshdpQk4g55AO5BbyAOlGXiOfUAzVQHVQE9QGHYayUDYaiSaiY9BsdAJags5FF6Gr0Wp0J1qPnkAvoNfQTvQF2ocBTB3Tw8wxJ4yFcbAYLA3LwqTYdKwMq8CqsTqsGT7nK1gn1oN9xIk4A2fiTnAFh+NJOB+fgE/HF+Jr8e14Pd6KX8Ef4L34NwKVYExwJPgQuIRRhGzCREIpoYKwlXCQcArupS7COyKRqEe0JXrBvZhKzCVOIS4kriPuJh4ndhAfEftIJJIhyZHkR4oh8UhFpFLSGtJO0jHSZVIX6YOaupqZmqtaqFqamlhttlqF2g61o2qX1Z6qfSZrkq3JPuQYsoA8mbyYvIXcTL5I7iJ/pmhRbCl+lERKLmUWZTWljnKKcpfyRl1d3ULdWz1OXaQ+U321+h71s+oP1D9qaGs4aHA00jVkGos0tmkc17il8YZKpdpQA6lp1CLqImoN9ST1PvUDjUFzpnFpAtoMWiWtnnaZ9pJOplvT2fSx9BJ6BX0//SK9R5OsaaPJ0eRpTtes1GzSvKHZp8XQGq4Vo1WgtVBrh9Y5rWfaJG0b7RBtgfZc7c3aJ7UfMTCGJYPD4DPmMLYwTjG6dIg6tjpcnVydcp1dOu06vbrauu66ybqTdCt1j+h26mF6NnpcvXy9xXr79K7rfdI30WfrC/UX6NfpX9Z/bzDEINBAaFBmsNvgmsEnQ6ZhiGGe4VLDBsN7RriRg1Gc0USj9UanjHqG6AzxHcIfUjZk35Dbxqixg3G88RTjzcZtxn0mpiZhJhKTNSYnTXpM9UwDTXNNV5geNe02Y5j5m4nMVpgdM3vO1GWymfnM1cxWZq+5sXm4ucx8k3m7+WcLW4ski9kWuy3uWVIsWZZZlissWyx7rcysRlpNtaq1um1NtmZZ51ivsj5j/d7G1ibFZp5Ng80zWwNbrm2Jba3tXTuqXYDdBLtqu6v2RHuWfZ79OvtLDqiDh0OOQ6XDRUfU0dNR5LjOsWMoYaj3UPHQ6qE3nDSc2E7FTrVOD5z1nKOcZzs3OL8cZjUsbdjSYWeGfXPxcMl32eJyZ7j28Ijhs4c3D3/t6uDKd610vepGdQt1m+HW6PbK3dFd6L7e/aYHw2OkxzyPFo+vnl6eUs86z24vK68MryqvGywdVixrIeusN8E7yHuG92Hvjz6ePkU++3z+8nXyzfPd4ftshO0I4YgtIx75Wfjx/Db5dfoz/TP8N/p3BpgH8AKqAx4GWgYKArcGPmXbs3PZO9kvg1yCpEEHg95zfDjTOMeDseCw4LLg9hDtkKSQtSH3Qy1Cs0NrQ3vDPMKmhB0PJ4RHhi8Nv8E14fK5NdzeCK+IaRGtkRqRCZFrIx9GOURJo5pHoiMjRi4feTfaOloc3RADYrgxy2PuxdrGTog9FEeMi42rjHsSPzx+avyZBEbCuIQdCe8SgxIXJ95JskuSJbUk05PTk2uS36cEpyxL6Rw1bNS0URdSjVJFqY1ppLTktK1pfaNDRq8c3ZXukV6afn2M7ZhJY86NNRqbP/bIOPo43rj9GYSMlIwdGV94MbxqXl8mN7Mqs5fP4a/ivxAEClYIuoV+wmXCp1l+WcuynmX7ZS/P7s4JyKnI6RFxRGtFr3LDczfkvs+LyduW15+fkr+7QK0go6BJrC3OE7eONx0/aXyHxFFSKumc4DNh5YReaaR0ayFSOKawsUgH/si3yexkv8geFPsXVxZ/mJg8cf8krUniSW2THSYvmPy0JLTktyn4FP6UlqnmU2dNfTCNPW3TdGR65vSWGZYz5s7omhk2c/ssyqy8Wb/Pdpm9bPbbOSlzmueazJ0599EvYb/UltJKpaU35vnO2zAfny+a377AbcGaBd/KBGXny13KK8q/LOQvPP/r8F9X/9q/KGtR+2LPxeuXEJeIl1xfGrB0+zKtZSXLHi0fubx+BXNF2Yq3K8etPFfhXrFhFWWVbFXn6qjVjWus1ixZ82VtztprlUGVu6uMqxZUvV8nWHd5feD6ug0mG8o3fNoo2nhzU9im+mqb6orNxM3Fm59sSd5y5jfWbzVbjbaWb/26Tbytc3v89tYar5qaHcY7FteitbLa7p3pOy/tCt7VWOdUt2m33u7yPWCPbM/zvRl7r++L3Neyn7W/7oD1gaqDjINl9Uj95PrehpyGzsbUxo6miKaWZt/mg4ecD207bH648ojukcVHKUfnHu0/VnKs77jkeM+J7BOPWsa13Dk56uTV1rjW9lORp86eDj198gz7zLGzfmcPn/M513Sedb7hgueF+jaPtoO/e/x+sN2zvf6i18XGS96XmjtGdBy9HHD5xJXgK6evcq9euBZ9reN60vWbN9JvdN4U3Hx2K//Wq9vFtz/fmXmXcLfsnua9ivvG96v/sP9jd6dn55EHwQ/aHiY8vPOI/+jF48LHX7rmPqE+qXhq9rTmmeuzw92h3Zeej37e9ULy4nNP6Z9af1a9tHt54K/Av9p6R/V2vZK+6n+98I3hm21v3d+29MX23X9X8O7z+7IPhh+2f2R9PPMp5dPTzxO/kL6s/mr/tflb5Le7/QX9/RKelKf4FcBgRbOyAHi9DQBqKgAMeD6jjFae/xQFUZ5ZFQj8J6w8IyqKJwB18P89rgf+3dwAYM8WePyC+vR0AGKpACR6A9TNbbAOnNUU50p5IcJzwMaYr5kFmeDfFOWZ84e4f26BXNUd/Nz+CweRfFSTAkWVAAAAimVYSWZNTQAqAAAACAAEARoABQAAAAEAAAA+ARsABQAAAAEAAABGASgAAwAAAAEAAgAAh2kABAAAAAEAAABOAAAAAAAAAJAAAAABAAAAkAAAAAEAA5KGAAcAAAASAAAAeKACAAQAAAABAAABWKADAAQAAAABAAAAHAAAAABBU0NJSQAAAFNjcmVlbnNob3Qorpr9AAAACXBIWXMAABYlAAAWJQFJUiTwAAAB1WlUWHRYTUw6Y29tLmFkb2JlLnhtcAAAAAAAPHg6eG1wbWV0YSB4bWxuczp4PSJhZG9iZTpuczptZXRhLyIgeDp4bXB0az0iWE1QIENvcmUgNi4wLjAiPgogICA8cmRmOlJERiB4bWxuczpyZGY9Imh0dHA6Ly93d3cudzMub3JnLzE5OTkvMDIvMjItcmRmLXN5bnRheC1ucyMiPgogICAgICA8cmRmOkRlc2NyaXB0aW9uIHJkZjphYm91dD0iIgogICAgICAgICAgICB4bWxuczpleGlmPSJodHRwOi8vbnMuYWRvYmUuY29tL2V4aWYvMS4wLyI+CiAgICAgICAgIDxleGlmOlBpeGVsWURpbWVuc2lvbj4yODwvZXhpZjpQaXhlbFlEaW1lbnNpb24+CiAgICAgICAgIDxleGlmOlBpeGVsWERpbWVuc2lvbj4zNDQ8L2V4aWY6UGl4ZWxYRGltZW5zaW9uPgogICAgICAgICA8ZXhpZjpVc2VyQ29tbWVudD5TY3JlZW5zaG90PC9leGlmOlVzZXJDb21tZW50PgogICAgICA8L3JkZjpEZXNjcmlwdGlvbj4KICAgPC9yZGY6UkRGPgo8L3g6eG1wbWV0YT4KDKlQjAAAABxpRE9UAAAAAgAAAAAAAAAOAAAAKAAAAA4AAAAOAAAFSX+sJwEAAAUVSURBVHgB7FptaFtVGH4iq2hsK0la+7k1rFYY1TqkOlrSYlUC1jks69Q5rGPSH6L0p+IHND86QodSKEL9p1KwrZZtFsHCaFm3UpH8KEMEGX4gjXXqZkfWZLLUxNxTj7yx5+Tk5uYTzg3knnve87wfz7n3yc2519bU1BSH3jQDmgHNgGYg6wzYtMBmnVPtUDOgGdAMMAa0wOoTQTOgGdAM5IgBLbA5Ila71QxoBjQDWmBL4Bzw+/2oqqpimQ4PD2N9fT2vWY+OjsLpdGY1fl9fH3p7e5nPhYUFTE9P57UmVbBezyt44sBx6bBQ+Bp8H2znLx2kDVlh4J3Bs3BW1jFfpz4+iitXf1T6zfX8Uf8XVz/FmcX3knJ66r6n8dL+E9ACm0RLcR6Mj4/Dbrez5Hw+H4LBYF4TzUX8gYEBdHd3szqWlpYwOTmZ15pUwZ71voWOtj7psMhfIbz9/uNSuzZkj4GTry3Afkclc3jqo6P49er3Sue5nj/qf+XSaXx2zp+U0/P3H8OR1ue0wCaxUqQHuRA4M6WOjY2hoqKCQbIl8MUosLt23Y62lsdgS1Tq7XgZ9zjdUppisb/xyZc+Zv/lj8tp3VVJnWlDSga0wKakRxutMlBogbWavwhfjAJbV3UvXj8+xdJV3aGq7mBENeu+zBjIRGBpJKt46ou3051/vUTAGSvivRbY/EyOFtj88Gw2ilWBtIoX5WtZYDs7O+HxeES+Wd/a2hqmprZ/7UWDShHvcDgwODhour7l5WWsrKyA4kWc0D4z/LW0tMBmM/64gj3g2tzchApPY2XSFs1fLBbDxMQEwuGw0qUKb+YO9tWHHkF9eSXiiY//q4sIR28p42cygAqsgf8huCp1U5NYPii3O5hdtAb3cOtBHHjgkBS//vtlnF58V2ovBP7u8mq8ePAky8lMfl9/M4fAt1+A4qWF/Wsw439vw4OJ8/82hrxy7SeEb16HCk/jZyKwIv7jiWWhD+fegPHvxrLA0guAJsvbkUgEQ0ND/HDHvhTxjY2NMNYYjc1MffwhDcUzJym+zPgXuVHhRRgzfbL5S3cNVoWnds6fLL/PD7+A2rvKmfnwmWkEb4RkQy31/19g03UmElh6AYr8mFmCyBee1m8mP14/xYtypn1m/FMcb6vwfJyxz0RgZfPHH7JRO6+fxuRt6RIBvQD4YLpXXeCliKcCaaY+LhAUT7kStc34zwQvwpjpk82fFtidLIouMHoB7kQkfsAVbyEUAk8F0kx+vH6KF9VM+8z4pzjeVuH5OGNflALrdrvR3NxM80xqd3V1oaGhgfXx9xhramowMjLC+uLxOGZmZpIw9KCnpwfGeGMrBF6UPxVIMwIoEthoNIrZ2VlaclJbFJ8OoPz39/ejrKyMmefn57GxsYFQKIRAIEAhWW3L4qcSWNX8u1wueL1eGOcGX/Iwkub8yQpor62H687t19QurP2Mm1tR2VBL/VQgtrZuYe7CuNRf+74nsaeuldm5wFQ7duPNE9tzbtR49vyYFO/Z349qxx5m5+9R5hPf0fYMal17k+LT+lUCRn8AeP0Ur+JPFJ+Stbt2H9z1bazrUPcQjDc8jG0xMInrN37DZuRPrH53jvWpvtIVWBX/xru4j7YfS5y/sf+WLIzYvH5RHtI7WNFg2kfvcPgFkk2BsipwpYin/NJ2oR9ypRtfNf/UTuvj5w/tK0SbCoRVgdH41O8JiwRaNufpCqRVvGr+qZ3GSiWw/wAAAP//bHxIKgAABLtJREFU7VtPSFxHHP5WiMZtutB1QaOCGIIISaRKVIKraI17CC2JMcY/C+JNAtFTSCC5iBAKpb1IDz2WetCkJrbSg1AM2IgggZSklFwiiBGTQ3LZUulBY3yz/MLPOON7b8fJutvZgzN+M9/7/X7fvPl4zj4DZWVlW5B8wuEwKioqJCNJqK2tDdtc8cvc3BzGxsZQWlqK4eFhga2vr2NoaCg5WfKzp6cHra2tYiQd/L6+PjQ1NaUc3wRfIpOARkdHEQwGRd/Rd3V1VTXVCO41vtv683GeKK0/x9LRPxo5juv94yL0+n8J3Po+eX/Kcrkcu4kzVe1iaOHJffz8+9fww7/4xTU01nSlja+bvwm+TGcHu311FsHDITH8zY89ePn6uWqqFPfKd1s/Ps4D0fpzjPoBlcFyA6HJqpY2CN9AbgYru9bH5PP6UsnfBF+miYN5NTgVXxf3Gt/P+sn0081Tl883kGmDleXqJ74u34RB+slfFl9Wk4N5NUhdvon8rcFur4o1WNWtmcStwe7WR2YQfjbo7ivC1xOwLl83fxN8WU0OljUGGwqFMDAwgEAggMLCQiQSCVXNiEQiyM/PF+OpGFRdXR2am5sFf35+HgsLC76OGHT5sico3ScwXb5KbK8Gp+Lr4l7jm6pfN3+vfD8GqWsw1ZUxNHx+SaS2+Nc0Hv39my+D1eXr5m+Cr1qnrDFY3Q1i+d7PoGUGr7rBvBqciq+Le42vu/66eeryP6bBmjCoTM9ftX7WYFP4kktmMLobNNP5qhvMq8Gp+Lq41/i6+uvmqcvPdIPK9PxV65c1Bpubm4uGhgbk5OSgvr4e5eXlqprFMQIN0hFBXl4eotGogBsbG1FSUkJTdrUbGxuYnJwU+NLSEpaXl5FJfOcYhT5UvymDqa2thXN8U1BQgFgshq2tnS9+zM7OYmJigtLZ99ZrfD/rJ9NPlfhPX17E8c/CYvjyL3ex+o/66Ep1DS+4rkHlHQqi7tRXItSZqgsoKjimDLu5uYHpP0bF+PLaU7x49QyZxA8Ect7XRt+i6+r3/oIfdKor23AkGEY4dBTNp+Pb9//bHTMe/nkXUw++24Gdi17B2fp+gfFciZv49w2Gfzi3g+NHf35Nqp9f7HxlO+JVfdjXL7l4AP6EynHqu71lcND5VIfTmjZYisUNnDAen2Mm+n7iu60fz4/04xjv/9rRi6JPjgioY2riwBosz5kfAXCc+n7eUiAOb9PN57mQwZgyWIrFr0+Y01J8jpnWn8eSxe8+GUfnia79MVjnCWp8PPn+IAV222DZZLBUf3FxMUZGRoQEbvXF43G0tLSIucQn7VStyuCI7/wFUlNTo6Ir8ZWVFaytrSnHacAtPs1zWrf153Mpf47x/r32bpR+mnwP0qTBFkWO4Ub/HRHazcA6Wq8jWt0p5j58fAf3H3zLU4bpDe6Wn+n4vFiqfz/149envspgKT7Nc9p01M/jd57oRvfJXrXB8sm2nxkKqAzQLXu3J0g3vh23ClgF5Aoojwjk0y16kBWwBnuQV8fm9n9UwBpsFq268+/Ng4ODviuamZnB4uKib54lWAWsAnsrYA12b33sqFXAKmAVSFkBa7ApS2eJVgGrgFVgbwXeAcGeW/lW9LKOAAAAAElFTkSuQmCC;" vertex="1" parent="1">
                    <mxGeometry x="213.14" width="245.71" height="20" as="geometry"/>
                </mxCell>
                <mxCell id="10" value="" style="edgeStyle=none;html=1;" edge="1" parent="1" source="4" target="9">
                    <mxGeometry relative="1" as="geometry"/>
                </mxCell>
                <mxCell id="4" value="Get signer PK and remove drop ID for PK - in same block" style="rounded=1;whiteSpace=wrap;html=1;" vertex="1" parent="1">
                    <mxGeometry x="241" y="40" width="190" height="60" as="geometry"/>
                </mxCell>
                <mxCell id="7" value="" style="shape=image;verticalLabelPosition=bottom;labelBackgroundColor=default;verticalAlign=top;aspect=fixed;imageAspect=0;image=data:image/png,iVBORw0KGgoAAAANSUhEUgAAAgQAAAAwCAYAAABudmIEAAAMP2lDQ1BJQ0MgUHJvZmlsZQAASImVVwdYU8kWnluSkEASIHQpoTdBpAaQEkILIL0IohKSAKHEGAgq9rKo4NrFAjZ0VUSx0+yInUWx98WCirIuFuzKmxTQdV/53nzf3PnvP2f+c+bcmXvvAEA/zpNI8lFNAArERdL4sCDmqNQ0JukpIAI60AI0oM/jF0rYsbFRAJaB9u/l3XWAyNsrTnKtf/b/16IlEBbyAUBiIc4UFPILID4AAF7Fl0iLACDKecuJRRI5hhXoSGGAEM+X42wlrpLjTCXeo7BJjOdA3AqAmgaPJ80GgHYJ8sxifjbUoPVC7CIWiMQA0JkQ+xcUjBdAnAGxHbSRQCzXZ2X+oJP9N83MQU0eL3sQK+eiKGrBokJJPm/y/5mO/10K8mUDPmxg1ciRhsfL5wzzdjNvfKQca0DcI86MjoFYG+IPIoHCHmKUkiMLT1Lao8b8Qg7MGdCD2EXAC46E2BjiUHF+dJSKz8wShXIhhisEnSQq4iZCbADxfGFhSILKZqN0fLzKF1qfJeWwVfxZnlThV+7rviwvia3Sf50j5Kr0MVpJTmIKxBSIrYpFydEQ0yB2LsxLiFTZjCjJ4UQP2Ehl8fL4rSCOF4rDgpT6WHGWNDReZV9WUDgwX2xjjogbrcL7inISw5X5wVr5PEX8cC7YJaGYnTSgIywcFTUwF4EwOEQ5d+yZUJyUoNL5ICkKileOxSmS/FiVPW4hzA+T8xYQuxcWJ6jG4slFcEEq9fEsSVFsojJOvCSXFxGrjAdfAqIABwQDJpDBmgnGg1wgau9p6IF3yp5QwANSkA2EwEnFDIxIUfSI4TUBlIA/IRKCwsFxQYpeISiG/NdBVnl1AlmK3mLFiDzwBOICEAny4b1MMUo86C0ZPIaM6B/eebDyYbz5sMr7/z0/wH5n2JCJUjGyAY9M+oAlMYQYTAwnhhLtcSPcH/fFo+A1EFZXnIV7D8zjuz3hCaGD8JBwjdBJuDVONFv6U5QjQSfUD1XlIvPHXOA2UNMDD8L9oDpUxvVwI+CEu0M/bDwAevaALEcVtzwrzJ+0/zaDH56Gyo7sQkbJ+uRAst3PI2kONI9BFXmuf8yPMtbMwXxzBnt+9s/5IfsC2Eb+bInNx/ZjZ7AT2DnsMNYAmNgxrBFrw47I8eDqeqxYXQPe4hXx5EEd0T/8DTxZeSYLXWpdul2+KPuKhJPk72jAGS+ZLBVl5xQx2fCLIGRyxXznoUxXF1c3AOTfF+Xr602c4ruB6LV95+b8AYDfsf7+/kPfuYhjAOz1gtu/6Ttnx4KfDnUAzjbxZdJiJYfLLwT4lqDDnWYITIElsIPzcQWewBcEghAQAWJAIkgFY2H0OXCdS8FEMBXMAqWgHCwBK8FasAFsBtvBLrAPNIDD4AQ4DS6AS+AauANXTxd4AXrBO/AZQRASQkUYiCFihlgjjogrwkL8kRAkColHUpEMJBsRIzJkKjIHKUeWIWuRTUgNshdpQk4g55AO5BbyAOlGXiOfUAzVQHVQE9QGHYayUDYaiSaiY9BsdAJags5FF6Gr0Wp0J1qPnkAvoNfQTvQF2ocBTB3Tw8wxJ4yFcbAYLA3LwqTYdKwMq8CqsTqsGT7nK1gn1oN9xIk4A2fiTnAFh+NJOB+fgE/HF+Jr8e14Pd6KX8Ef4L34NwKVYExwJPgQuIRRhGzCREIpoYKwlXCQcArupS7COyKRqEe0JXrBvZhKzCVOIS4kriPuJh4ndhAfEftIJJIhyZHkR4oh8UhFpFLSGtJO0jHSZVIX6YOaupqZmqtaqFqamlhttlqF2g61o2qX1Z6qfSZrkq3JPuQYsoA8mbyYvIXcTL5I7iJ/pmhRbCl+lERKLmUWZTWljnKKcpfyRl1d3ULdWz1OXaQ+U321+h71s+oP1D9qaGs4aHA00jVkGos0tmkc17il8YZKpdpQA6lp1CLqImoN9ST1PvUDjUFzpnFpAtoMWiWtnnaZ9pJOplvT2fSx9BJ6BX0//SK9R5OsaaPJ0eRpTtes1GzSvKHZp8XQGq4Vo1WgtVBrh9Y5rWfaJG0b7RBtgfZc7c3aJ7UfMTCGJYPD4DPmMLYwTjG6dIg6tjpcnVydcp1dOu06vbrauu66ybqTdCt1j+h26mF6NnpcvXy9xXr79K7rfdI30WfrC/UX6NfpX9Z/bzDEINBAaFBmsNvgmsEnQ6ZhiGGe4VLDBsN7RriRg1Gc0USj9UanjHqG6AzxHcIfUjZk35Dbxqixg3G88RTjzcZtxn0mpiZhJhKTNSYnTXpM9UwDTXNNV5geNe02Y5j5m4nMVpgdM3vO1GWymfnM1cxWZq+5sXm4ucx8k3m7+WcLW4ski9kWuy3uWVIsWZZZlissWyx7rcysRlpNtaq1um1NtmZZ51ivsj5j/d7G1ibFZp5Ng80zWwNbrm2Jba3tXTuqXYDdBLtqu6v2RHuWfZ79OvtLDqiDh0OOQ6XDRUfU0dNR5LjOsWMoYaj3UPHQ6qE3nDSc2E7FTrVOD5z1nKOcZzs3OL8cZjUsbdjSYWeGfXPxcMl32eJyZ7j28Ijhs4c3D3/t6uDKd610vepGdQt1m+HW6PbK3dFd6L7e/aYHw2OkxzyPFo+vnl6eUs86z24vK68MryqvGywdVixrIeusN8E7yHuG92Hvjz6ePkU++3z+8nXyzfPd4ftshO0I4YgtIx75Wfjx/Db5dfoz/TP8N/p3BpgH8AKqAx4GWgYKArcGPmXbs3PZO9kvg1yCpEEHg95zfDjTOMeDseCw4LLg9hDtkKSQtSH3Qy1Cs0NrQ3vDPMKmhB0PJ4RHhi8Nv8E14fK5NdzeCK+IaRGtkRqRCZFrIx9GOURJo5pHoiMjRi4feTfaOloc3RADYrgxy2PuxdrGTog9FEeMi42rjHsSPzx+avyZBEbCuIQdCe8SgxIXJ95JskuSJbUk05PTk2uS36cEpyxL6Rw1bNS0URdSjVJFqY1ppLTktK1pfaNDRq8c3ZXukV6afn2M7ZhJY86NNRqbP/bIOPo43rj9GYSMlIwdGV94MbxqXl8mN7Mqs5fP4a/ivxAEClYIuoV+wmXCp1l+WcuynmX7ZS/P7s4JyKnI6RFxRGtFr3LDczfkvs+LyduW15+fkr+7QK0go6BJrC3OE7eONx0/aXyHxFFSKumc4DNh5YReaaR0ayFSOKawsUgH/si3yexkv8geFPsXVxZ/mJg8cf8krUniSW2THSYvmPy0JLTktyn4FP6UlqnmU2dNfTCNPW3TdGR65vSWGZYz5s7omhk2c/ssyqy8Wb/Pdpm9bPbbOSlzmueazJ0599EvYb/UltJKpaU35vnO2zAfny+a377AbcGaBd/KBGXny13KK8q/LOQvPP/r8F9X/9q/KGtR+2LPxeuXEJeIl1xfGrB0+zKtZSXLHi0fubx+BXNF2Yq3K8etPFfhXrFhFWWVbFXn6qjVjWus1ixZ82VtztprlUGVu6uMqxZUvV8nWHd5feD6ug0mG8o3fNoo2nhzU9im+mqb6orNxM3Fm59sSd5y5jfWbzVbjbaWb/26Tbytc3v89tYar5qaHcY7FteitbLa7p3pOy/tCt7VWOdUt2m33u7yPWCPbM/zvRl7r++L3Neyn7W/7oD1gaqDjINl9Uj95PrehpyGzsbUxo6miKaWZt/mg4ecD207bH648ojukcVHKUfnHu0/VnKs77jkeM+J7BOPWsa13Dk56uTV1rjW9lORp86eDj198gz7zLGzfmcPn/M513Sedb7hgueF+jaPtoO/e/x+sN2zvf6i18XGS96XmjtGdBy9HHD5xJXgK6evcq9euBZ9reN60vWbN9JvdN4U3Hx2K//Wq9vFtz/fmXmXcLfsnua9ivvG96v/sP9jd6dn55EHwQ/aHiY8vPOI/+jF48LHX7rmPqE+qXhq9rTmmeuzw92h3Zeej37e9ULy4nNP6Z9af1a9tHt54K/Av9p6R/V2vZK+6n+98I3hm21v3d+29MX23X9X8O7z+7IPhh+2f2R9PPMp5dPTzxO/kL6s/mr/tflb5Le7/QX9/RKelKf4FcBgRbOyAHi9DQBqKgAMeD6jjFae/xQFUZ5ZFQj8J6w8IyqKJwB18P89rgf+3dwAYM8WePyC+vR0AGKpACR6A9TNbbAOnNUU50p5IcJzwMaYr5kFmeDfFOWZ84e4f26BXNUd/Nz+CweRfFSTAkWVAAAAimVYSWZNTQAqAAAACAAEARoABQAAAAEAAAA+ARsABQAAAAEAAABGASgAAwAAAAEAAgAAh2kABAAAAAEAAABOAAAAAAAAAJAAAAABAAAAkAAAAAEAA5KGAAcAAAASAAAAeKACAAQAAAABAAACBKADAAQAAAABAAAAMAAAAABBU0NJSQAAAFNjcmVlbnNob3Sn866vAAAACXBIWXMAABYlAAAWJQFJUiTwAAAB1WlUWHRYTUw6Y29tLmFkb2JlLnhtcAAAAAAAPHg6eG1wbWV0YSB4bWxuczp4PSJhZG9iZTpuczptZXRhLyIgeDp4bXB0az0iWE1QIENvcmUgNi4wLjAiPgogICA8cmRmOlJERiB4bWxuczpyZGY9Imh0dHA6Ly93d3cudzMub3JnLzE5OTkvMDIvMjItcmRmLXN5bnRheC1ucyMiPgogICAgICA8cmRmOkRlc2NyaXB0aW9uIHJkZjphYm91dD0iIgogICAgICAgICAgICB4bWxuczpleGlmPSJodHRwOi8vbnMuYWRvYmUuY29tL2V4aWYvMS4wLyI+CiAgICAgICAgIDxleGlmOlBpeGVsWURpbWVuc2lvbj40ODwvZXhpZjpQaXhlbFlEaW1lbnNpb24+CiAgICAgICAgIDxleGlmOlBpeGVsWERpbWVuc2lvbj41MTY8L2V4aWY6UGl4ZWxYRGltZW5zaW9uPgogICAgICAgICA8ZXhpZjpVc2VyQ29tbWVudD5TY3JlZW5zaG90PC9leGlmOlVzZXJDb21tZW50PgogICAgICA8L3JkZjpEZXNjcmlwdGlvbj4KICAgPC9yZGY6UkRGPgo8L3g6eG1wbWV0YT4K2rmyWQAAABxpRE9UAAAAAgAAAAAAAAAYAAAAKAAAABgAAAAYAAAE0G97SgwAAAScSURBVHgB7JvNS1VbFMDXBROSJLxpH+8ZvsktCGoaiEgRRU9q4D8gOHASPRv2BoXOxJEklc0ldNo0krJEiP6DnkShCWX1eLyrj/Rx695tC5d5jsd9PtS6vzPZy732Wmuv316es7znmmtpafkiXBCAAAQgAAEIVDWBHA1BVZ8/yUMAAhCAAAQcARoCCgECEIAABCAAAaEhoAggAAEIQAACEKAhoAYgAAEIQAACEBAaAooAAhCAAAQgAAEaAmoAAhCAAAQgAIEyAb5DQBlAAAIQgAAEIEBDQA1AAAIQgAAEIMAnBNQABCAAAQhAAAJlArwyoAwgAAEIQAACEKAhoAYgAAEIQAACEOATAmoAAhCAAAQgAIEyAV4ZUAYQgAAEIAABCNAQUAMQgAAEIAABCPAJATUAAQhAAAIQgECZwJZeGezZ/4sU/njkgC1/fCUzI5diw+vs7JSOjg5nPzExIePj47F9/eyGg4ODks/nXZp9fX0yPz+fOGX4J0ZYNQ4GBgaksbEx1frzgUf9+9DauDYLfhujMJMmgaT35wOnu+TQ+T/dlhaeDMvC1D2v7W2pIajNt0jh6kPneOWfeXl566xXELu4q6tL2tvb3dTk5KSMjo5aNbIhMDw8LHV1dW6mv79f5ubmjDaeCP943KrRKov68+GYRfxqqv8s+PmcH2v9CSStz4NnrklT+xUXeOHpHXlfbgp8rk0bgr2/npKaurzsaTgqRy7ecH5pCHzwJls7NDQk9fX1zgkNQTKWWPsT2OkHCvXvf2bWIgt+1j9y+gTSbAiKM0/l04v7bpOLr59LaeW/yA1v2hAcu/ZYKq8LKtdfty/I8qc3kQ6jFiRNOMo/+s0JwH9zPmjXCOx0Q7C2k/Qk6j89lnhKn0Ca9Rnn+U1DkP6Z7mqPaRbcrk6UzSUmQEOQGCEOIOBFIM37cyoNQf3xc7L/5GWXxN7DJ2T571knv31wXf4vfohMrrW1Vdra2tatK5VKMjIyIouLixKUcENDg/T09Dib2dlZGRsbc3J3d7c0NTWt82X16xTffgiKb9cF2acZ38aKIwft3/KL8hllH8Q/yud26oP2b+MHnZ/V/4j2YfVn81LZ5jc1NSXT09Ni7XVd2OjDr1AoSC6Xc64qX2gtFosSZR8Wd6vzNj+1of6VxPpRz9/OZsHP+reyxs+q/mwslYPqz8a3+jjPD43jM6YZP+r+bM9X+Yft9cjvN6U2/5vU7GuU0vKSrPz7Tj6/eykLz+6GmWz8L4OkX0qwCdmo+g7c6vVLhc3NzVLRV66lpSXp7e11sv0LxU18p9c5O1r/dl5l61/n0oyvPuOOYftXflF+o+ytXvlH+dxOvd1fUNyg87PrfkT7sPqzeals89Pzs/a6LmzMml9Y3K3O2/ysDfVvaazKev5WkxU/G0Nljb/T9Wfj2/qO8/zQ3HzGNOPb81O+di9RertWZZ9/CtjwyoCGIFlDoocQd7QHbn1wQ1ylYX/hLR+Vw/ipfjfah91QdM92tPnpDcPa27VBctb5B8X0mbP5WTvq39JYlfX8rSYrfjaGyhp/p+vPxrf1TUOwelI+DcFXAAAA///5UDzqAAAJYUlEQVTtXc1PVUcUP9iCVRqogKiIVWJl0V1N/KgfBELELlzahTFxYRcmbZEm/QM01o1LSVt2muhCTNzXtCFUYkyMTbpwVakNNYQ2YNXaAg1QKDM6rz/kDDNz5973HrxzF95zZ+Z3Pn7nzLx5j3uvZVu3bp0jOOpbu2h9y8e6ZWzgaxr9/iL08uKGDRvo/PnzunNubo6uX7++YGBtbS11dHSQ6isrK8v13bp1i65evUqNjY109uzZXLsap46xsTHq6+vLtSuhra2NlD11qL7e3l59vZR9PfjlPwcPHqTNmzfrK4MPsc/hUX+svG3bNtq+fbtWc/ToUSovL9ey4md4eJhVH8s/q7RAjRg/5wLHvyt+1BNbP7F4zn+sv4mJCTp9+jS6vEA+ceIEtbS06DZu/kxPT9ONGzcWYPCCs4/9yD/W382bN+np06f0/PlzunfvHkJSlW32V3L9h9Qvkv3w4UMaGhrCJorlb2ZmZsn62bt3LzU1NWmbadVfSPxc/eL8UY6Ffn4sIDDBRYh9zn80ifN7YGCArly5Yv184/KPuoxcUbOVdnz6rb6c/nOEHlxsM12LzmVLbwi+mt8QdC8CvdqAhHALGvYjlisorh/bkDAOz9kPweNYox/bOPvYn6bc3d1Na9eu1SqXWhCRXy5+7Ef/uPiwvxhljn+Mj4sf4xD84g0F8oOyb/0hJk3Z174r/9iP/hVL/aN/rvpF/11yWvyhnWKfP+grl1/Of8QkkTF/iE9in/MP9SepjxW9ITh27Bi1t7dr3g3hIYS5CI9NKOJj5bQmNPKDPhn+sK3Qck1NDTU3N1vdOHToEM1vYnW/8R/jc02Y2PqJxbvqz+V/Fngb2b71Z8PHtvvad+Uf+9EnUz/YVgi5oaGBzp07p03Pzs7SpUuXrG6Mj4/T/fv3rf3YkRZ/qDOL+sP8TE1N6W/FaBNl1/zHsVx+ufmLmCQy+o94zj7HH2Kwf3BwkJSOjRs30pEjR/Qw1/qAuoxcdBsC45g6Y8CGMCQ0ScAh+Fj7HB7jS1PO14RO0+dYXcivS1ch6ofzqdD1F2ufi0m1+dafDR/b7ms/q/hj/U+Cd9V/yPqYL/5i+Ud8CGdpzf8Qm9xY9N+VH8yv8R91Yj+2L/ULMY7jZNkQRPwNNjahXEKStuVrQif1LwucbUJwtsyECpmQnJ584jG+JP5ngec4UW2+9WfDx7b72g/JH8dfrJ9p4tE/Tq9rfUJMvviL5R/x6L9LTjJ/XDqT9KP/rvxgfo3/aBP7sb1gG4Kqdz+gde99qH0pr26gf0Z/0vLv33xBM+N/oI85OZaQEHzOKAgheCTcJATx6oYU9VON7di0aRM9e/ZMd/f395O68SOrI18TOiv/ffVWVVXRqVOn9A2n6gYjdeOa7airq6M1a9bobi5/rgm5e/duam1t1fjbt2/TnTt3FtzUmjXeVX8u+1ngbVz71p8NH9vuax/nbxL+Yv1ME69uGFU3rtoOdYO2ubnY1K9trC9/1dXV1NXVpedfZWUlPX782KZSzxVzX1OS+eeqX7X+mvisTrzsMOtvSP5dOpP0o/3Yzw/kZ3JyUueioqKC1J9S1LW60f7y5ctebqoHBCrqmuj1ylp67Y0qmvn7MU09GaLf5j/LbceimwpxYHNXP6lNgToGv+yYV/YrdudkJCTJhAzB54yCEIJHwrmCBrWs6IqPBSVs9J3QsfEndC81WKz/gv//KR1XfXL1b0ukb/3Z8LHtvvZj8x/rZz7xWecP9bvi4tbPJPUXkj/Op1g8pzOkDe27cPnkx/fzG32WDQHz2CMS9KrsSuir42OuS2VBxAnl4hcXrEIsSCvRvq1GfevPho9t97UfWz+xfuYTz9Wfzb4vf4hH/djOyYWYf5wfIfnn8LFtaN+lK+v1De2nviF4852D8z81vEUV6xqpvu0zmpv9l6b++IV+7nlxx6Mxvnr1ajpw4IC+xOcsTT+eXe8hcBGGuowcYh+fszXPcWJCXc9xZ/0ctolJnXft2kXq53R8jwP2m/cohMTP8Y86Ub5w4QKpu/7VcebMGRoZGcHu1GT1k9j+/ftp1apVtGfPntxzzpwBzv+Q+Ln8Lyc8Fz/Wr2v+4IJvFnSOZ9XmW382fGy7r/2Q/HH82fzMV/3jc/g2X0w7V7+m79WzL3+Iw/cYYLuR1Tq/ZcsWfWnqJ7b+QvJn/FBns/6F2Ed8WjLaj/38wPlp3kOg/kS6b98+7S73HhSMo+79j6i+/XPdNDn8Iz35oVfLfz3oo9mpCRzKykv+QmAQIXcpYkAGbzsnKSibLtPuss8tmJhQrt/oLtQZ/UMfDH/Y5oofx3J47E/yDQPxSeRY/114V36LHY+cmvxhfYTEZ/Cok5NRP/b74hGTRA6x78of2nf5n6/6t8WHvhrZlV8zDs82/a74UYeRkV+DR/0u/zi80a3O2I/tnJzEPqcnti0kfpctjN/EhxhX/8IXC/q9Rwj1+20I1r1NOzq/0zjXm47QYTTEyWqHd+3aNcLncF0FxenBNpd9Tn9sQtU33J07d6IbXvKjR4+8vnWjf6jY8IdtrvhxLIdXz7yqbwnqOHnypP7WruSYu1wV3veI9d+F5/KPvhU7Hn01+QuZP8ePH8/dtGbwqJOTXfUn9c+x5t+G+XOhXPXL4dPM3+HDh3O/EJj6Qf9d/rnqzzX/ML4k9hFv5Nj6RX5d8RubtjPyw20IsN/Ej7rWt3xC9a0v3nQ6NpDRhgANrkQ5NqGID+GHS3gIPouxOCGL0b8sYhadcQxI/cfxV2h0SP5iP/AKHStnPyR+xJv1EfHLnR+vXwiQhJUoxyYU8SH8mIIKwWQ9VjYEWTO88vRL/S/vnIbkb7l/4HGZCokf8Wb9Rvxy50c2BPMZVjfOdXZ26lyPjo5ST08P5t0pI945GAao/zDm7t270FJ4EZ+DNs/5Ft4r8aCYGZD6L+bsuH0LyV+S9dHtQWFHhMSPnpr1G/HLnR/ZEGCGRRYGhAFhQBgQBkqUAdkQlGjiJWxhQBgQBoQBYQAZkA0BsiGyMCAMCAPCgDBQogzIhqBEEy9hCwPCgDAgDAgDyIBsCJANkYUBYUAYEAaEgRJlQDYEJZp4CVsYEAaEAWFAGEAGZEOAbIgsDAgDwoAwIAyUKAOyISjRxEvYwoAwIAwIA8IAMiAbAmRDZGFAGBAGhAFhoEQZkA1BiSZewhYGhAFhQBgQBpCB/wAojWRDPrrtUwAAAABJRU5ErkJggg==;" vertex="1" parent="1">
                    <mxGeometry x="213.14" y="120" width="250.86" height="23.34" as="geometry"/>
                </mxCell>
                <mxCell id="12" value="" style="edgeStyle=none;html=1;" edge="1" parent="1" source="9" target="11">
                    <mxGeometry relative="1" as="geometry"/>
                </mxCell>
                <mxCell id="9" value="- get Internal Drop from dropId, key info and current use" style="whiteSpace=wrap;html=1;rounded=1;" vertex="1" parent="1">
                    <mxGeometry x="237.43" y="160" width="197.14" height="50" as="geometry"/>
                </mxCell>
                <mxCell id="14" style="edgeStyle=none;html=1;entryX=0.5;entryY=0;entryDx=0;entryDy=0;" edge="1" parent="1" source="11" target="13">
                    <mxGeometry relative="1" as="geometry"/>
                </mxCell>
                <mxCell id="11" value="Get key behaviour for use and drop" style="whiteSpace=wrap;html=1;rounded=1;" vertex="1" parent="1">
                    <mxGeometry x="247.43" y="240" width="177.14" height="60" as="geometry"/>
                </mxCell>
                <mxCell id="19" style="edgeStyle=none;html=1;entryX=0.5;entryY=0;entryDx=0;entryDy=0;" edge="1" parent="1" source="13" target="18">
                    <mxGeometry relative="1" as="geometry"/>
                </mxCell>
                <mxCell id="24" style="edgeStyle=none;html=1;" edge="1" parent="1" source="13" target="31">
                    <mxGeometry relative="1" as="geometry">
                        <mxPoint x="135" y="510" as="targetPoint"/>
                        <Array as="points">
                            <mxPoint x="135" y="380"/>
                        </Array>
                    </mxGeometry>
                </mxCell>
                <mxCell id="13" value="asset in assetmetadata" style="rhombus;whiteSpace=wrap;html=1;" vertex="1" parent="1">
                    <mxGeometry x="251.43" y="340" width="172.86" height="80" as="geometry"/>
                </mxCell>
                <mxCell id="22" value="" style="edgeStyle=none;html=1;" edge="1" parent="1" source="18" target="21">
                    <mxGeometry relative="1" as="geometry"/>
                </mxCell>
                <mxCell id="18" value="Get Internal Asset by AssetID" style="rounded=1;whiteSpace=wrap;html=1;" vertex="1" parent="1">
                    <mxGeometry x="278" y="470" width="120" height="60" as="geometry"/>
                </mxCell>
                <mxCell id="26" value="" style="edgeStyle=none;html=1;" edge="1" parent="1" source="21" target="25">
                    <mxGeometry relative="1" as="geometry">
                        <Array as="points">
                            <mxPoint x="544" y="630"/>
                        </Array>
                    </mxGeometry>
                </mxCell>
                <mxCell id="21" value="push claim_asset promise with asset" style="whiteSpace=wrap;html=1;rounded=1;" vertex="1" parent="1">
                    <mxGeometry x="277.86" y="600" width="120" height="60" as="geometry"/>
                </mxCell>
                <mxCell id="27" style="edgeStyle=none;html=1;entryX=1;entryY=0.5;entryDx=0;entryDy=0;exitX=0;exitY=0.5;exitDx=0;exitDy=0;" edge="1" parent="1" source="29" target="13">
                    <mxGeometry relative="1" as="geometry"/>
                </mxCell>
                <mxCell id="30" style="edgeStyle=none;html=1;entryX=0.5;entryY=1;entryDx=0;entryDy=0;" edge="1" parent="1" source="25" target="29">
                    <mxGeometry relative="1" as="geometry"/>
                </mxCell>
                <mxCell id="25" value="Modify AssetMetadata&lt;br&gt;&lt;br&gt;ex. balance_avail for FTs" style="whiteSpace=wrap;html=1;rounded=1;" vertex="1" parent="1">
                    <mxGeometry x="475" y="470" width="137" height="60" as="geometry"/>
                </mxCell>
                <mxCell id="29" value="re-insert updated asset back into asset_by_id" style="whiteSpace=wrap;html=1;rounded=1;" vertex="1" parent="1">
                    <mxGeometry x="483.5" y="350" width="120" height="60" as="geometry"/>
                </mxCell>
                <mxCell id="33" style="edgeStyle=none;html=1;entryX=0.5;entryY=0;entryDx=0;entryDy=0;" edge="1" parent="1" source="31" target="32">
                    <mxGeometry relative="1" as="geometry"/>
                </mxCell>
                <mxCell id="31" value="Insert updated drop back into drop_by_id" style="rounded=1;whiteSpace=wrap;html=1;" vertex="1" parent="1">
                    <mxGeometry x="75" y="480" width="120" height="60" as="geometry"/>
                </mxCell>
                <mxCell id="36" style="edgeStyle=none;html=1;entryX=0.5;entryY=0;entryDx=0;entryDy=0;" edge="1" parent="1" source="32" target="35">
                    <mxGeometry relative="1" as="geometry">
                        <Array as="points">
                            <mxPoint x="135" y="710"/>
                            <mxPoint x="338" y="710"/>
                        </Array>
                    </mxGeometry>
                </mxCell>
                <mxCell id="32" value="Execute promises, re-try ones that didn't work and refund failed calls&amp;nbsp;" style="whiteSpace=wrap;html=1;rounded=1;" vertex="1" parent="1">
                    <mxGeometry x="60" y="610" width="150" height="80" as="geometry"/>
                </mxCell>
                <mxCell id="38" style="edgeStyle=none;html=1;entryX=0.5;entryY=0;entryDx=0;entryDy=0;" edge="1" parent="1" source="35" target="37">
                    <mxGeometry relative="1" as="geometry"/>
                </mxCell>
                <mxCell id="41" style="edgeStyle=none;html=1;entryX=0.5;entryY=0;entryDx=0;entryDy=0;" edge="1" parent="1" source="35" target="40">
                    <mxGeometry relative="1" as="geometry">
                        <Array as="points">
                            <mxPoint x="155" y="770"/>
                        </Array>
                    </mxGeometry>
                </mxCell>
                <mxCell id="35" value="key's last use?" style="rhombus;whiteSpace=wrap;html=1;" vertex="1" parent="1">
                    <mxGeometry x="251.57" y="730" width="172.86" height="80" as="geometry"/>
                </mxCell>
                <mxCell id="63" style="edgeStyle=none;html=1;entryX=0.5;entryY=0;entryDx=0;entryDy=0;" edge="1" parent="1" source="37" target="58">
                    <mxGeometry relative="1" as="geometry"/>
                </mxCell>
                <mxCell id="37" value="delete key" style="rounded=1;whiteSpace=wrap;html=1;" vertex="1" parent="1">
                    <mxGeometry x="278" y="850" width="120" height="60" as="geometry"/>
                </mxCell>
                <mxCell id="40" value="update remaining uses and re-insert into key_info_by_pk" style="rounded=1;whiteSpace=wrap;html=1;" vertex="1" parent="1">
                    <mxGeometry x="95.00000000000001" y="850" width="120" height="60" as="geometry"/>
                </mxCell>
                <mxCell id="43" value="yes" style="text;html=1;align=center;verticalAlign=middle;resizable=0;points=[];autosize=1;strokeColor=none;fillColor=none;" vertex="1" parent="1">
                    <mxGeometry x="335" y="420" width="40" height="30" as="geometry"/>
                </mxCell>
                <mxCell id="44" value="no" style="text;html=1;align=center;verticalAlign=middle;resizable=0;points=[];autosize=1;strokeColor=none;fillColor=none;" vertex="1" parent="1">
                    <mxGeometry x="185" y="350" width="40" height="30" as="geometry"/>
                </mxCell>
                <mxCell id="45" value="yes" style="text;html=1;align=center;verticalAlign=middle;resizable=0;points=[];autosize=1;strokeColor=none;fillColor=none;" vertex="1" parent="1">
                    <mxGeometry x="335" y="810" width="40" height="30" as="geometry"/>
                </mxCell>
                <mxCell id="46" value="no" style="text;html=1;align=center;verticalAlign=middle;resizable=0;points=[];autosize=1;strokeColor=none;fillColor=none;" vertex="1" parent="1">
                    <mxGeometry x="185" y="740" width="40" height="30" as="geometry"/>
                </mxCell>
                <mxCell id="55" style="edgeStyle=none;html=1;entryX=0.5;entryY=0;entryDx=0;entryDy=0;exitX=0.5;exitY=1;exitDx=0;exitDy=0;" edge="1" parent="1" target="58" source="40">
                    <mxGeometry relative="1" as="geometry">
                        <mxPoint x="147" y="930" as="sourcePoint"/>
                        <Array as="points">
                            <mxPoint x="155" y="950"/>
                            <mxPoint x="340" y="950"/>
                        </Array>
                    </mxGeometry>
                </mxCell>
                <mxCell id="56" style="edgeStyle=none;html=1;entryX=0.5;entryY=0;entryDx=0;entryDy=0;" edge="1" parent="1" source="58" target="59">
                    <mxGeometry relative="1" as="geometry"/>
                </mxCell>
                <mxCell id="57" style="edgeStyle=none;html=1;entryX=0.5;entryY=0;entryDx=0;entryDy=0;" edge="1" parent="1" source="58" target="60">
                    <mxGeometry relative="1" as="geometry">
                        <Array as="points">
                            <mxPoint x="167" y="1010"/>
                        </Array>
                    </mxGeometry>
                </mxCell>
                <mxCell id="58" value="drop is empty?" style="rhombus;whiteSpace=wrap;html=1;" vertex="1" parent="1">
                    <mxGeometry x="254" y="970" width="172.86" height="80" as="geometry"/>
                </mxCell>
                <mxCell id="65" style="edgeStyle=none;html=1;entryX=0.5;entryY=0;entryDx=0;entryDy=0;" edge="1" parent="1" source="59" target="66">
                    <mxGeometry relative="1" as="geometry">
                        <mxPoint x="345" y="1230" as="targetPoint"/>
                    </mxGeometry>
                </mxCell>
                <mxCell id="59" value="delete drop" style="rounded=1;whiteSpace=wrap;html=1;" vertex="1" parent="1">
                    <mxGeometry x="280.43" y="1090" width="120" height="60" as="geometry"/>
                </mxCell>
                <mxCell id="64" style="edgeStyle=none;html=1;entryX=0.5;entryY=0;entryDx=0;entryDy=0;" edge="1" parent="1" source="60" target="66">
                    <mxGeometry relative="1" as="geometry">
                        <mxPoint x="335" y="1230" as="targetPoint"/>
                        <Array as="points">
                            <mxPoint x="165" y="1190"/>
                            <mxPoint x="340" y="1190"/>
                        </Array>
                    </mxGeometry>
                </mxCell>
                <mxCell id="60" value="update drop info and reinsert into drop_by_id" style="rounded=1;whiteSpace=wrap;html=1;" vertex="1" parent="1">
                    <mxGeometry x="107.00000000000001" y="1090" width="120" height="60" as="geometry"/>
                </mxCell>
                <mxCell id="61" value="yes" style="text;html=1;align=center;verticalAlign=middle;resizable=0;points=[];autosize=1;strokeColor=none;fillColor=none;" vertex="1" parent="1">
                    <mxGeometry x="347" y="1050" width="40" height="30" as="geometry"/>
                </mxCell>
                <mxCell id="62" value="no" style="text;html=1;align=center;verticalAlign=middle;resizable=0;points=[];autosize=1;strokeColor=none;fillColor=none;" vertex="1" parent="1">
                    <mxGeometry x="197" y="980" width="40" height="30" as="geometry"/>
                </mxCell>
                <mxCell id="66" value="calculate storage used and modify user balance accordingly" style="rounded=1;whiteSpace=wrap;html=1;" vertex="1" parent="1">
                    <mxGeometry x="280.43" y="1220" width="120" height="60" as="geometry"/>
                </mxCell>
            </root>
        </mxGraphModel>
    </diagram>
</mxfile>